<?xml version="1.0" standalone="no"?><!DOCTYPE svg PUBLIC "-//W3C//DTD SVG 1.1//EN" "http://www.w3.org/Graphics/SVG/1.1/DTD/svg11.dtd"><svg class="icon" width="200px" height="200.00px" viewBox="0 0 1024 1024" version="1.1" xmlns="http://www.w3.org/2000/svg"><path d="M584.036037 182.647092C538.267363 176.863179 517.85863 178.363546 395.42874 310.800879l69.485715 64.523253 36.398886-30.562462s92.193758 92.396308 135.663121 143.517539l155.520469-125.648176c17.460513-19.553524-79.159326-163.641201-208.460894-179.980191z" fill="#FD8786" /><path d="M504.130279 699.75959c-140.047941-88.247795-367.297172-67.561495-449.49474 32.636718-4.351062-465.151062 706.424967 58.08293 865.951414-160.257876 90.374564 104.661802-125.595663 320.523253-416.456674 127.621158z" fill="#FB8688" /><path d="M819.612301 79.646945c-5.600117 3.300806-11.466549 6.75915-17.648059 10.36378l-10.828894 6.312791-9.973685-7.591853c-56.777612-43.210549-96.672352-52.820396-134.492835-42.39285-40.412366 11.14022-82.947751 45.986227-141.972161 105.228191l-5.498843 5.513846h-94.928175l-100.261978 121.510916-28.927063-23.874579 80.558418-97.636337h-165.340366v-37.509158h293.344117C539.467656 63.990623 587.003011 23.885832 636.698894 10.183736c50.911179-14.035927 100.138198 0.311326 157.002081 41.173802l7.903179-4.696146 0.022506-0.015004 0.033758-0.018754c53.893158-32.051575 96.349773-57.30274 160.64422-41.999004l14.411018 3.428337v310.256996h-37.509158V255.606154c-54.080703 2.696908-105.502007 27.306667-136.702124 47.47159 74.654476 69.909568 123.296352 144.867868 133.94145 208.577172 5.828923 34.861011 0.446359 67.95159-20.412483 93.956688-18.218198 22.715546-46.32381 37.621685-82.748952 44.68466l-0.307576 4.594872c-0.768938 11.620337-1.687912 27.059106-2.303062 42.449113-0.61515 15.506286-0.896469 30.517451-0.465113 41.455121l0.067516 1.511619h92.366301v-72.936557h37.509157v72.936557H1010.882748v37.509158h-50.731136v56.672586h-37.509157v-56.672586h-106.98362c-11.849143 0-17.16044-9.347282-18.300717-11.552821-1.68041-3.259546-2.494359-6.639121-2.944469-8.915927-0.975238-4.902447-1.440352-10.971429-1.684162-17.062915-0.495121-12.483048-0.157538-28.705758 0.465114-44.433348 0.607648-15.307487 1.507868-30.566212 2.273055-42.22781-33.131839-0.296322-79.335619-5.960205-113.37893-14.422271-36.042549-8.957187-76.083575-21.335209-117.568704-34.15959a6873.815678 6873.815678 0 0 0-49.947194-15.303736c-59.568293-17.929377-120.79074-34.669714-179.492571-43.236806-117.478681-17.145436-218.348308-0.945231-277.035136 96.33852-13.158212 29.463443-13.80337 55.817377-6.436571 78.72422 7.546842 23.46948 24.039619 44.89096 47.467839 62.70781 45.802432 34.827253 115.291897 53.604337 181.998183 46.357567 27.843048-27.828044 33.990799-56.297495 27.332923-84.560644-7.396806-31.410168-31.301392-65.190916-67.797802-97.988923l25.074871-27.895561c39.009524 35.05981 69.30567 75.138344 79.234345 117.283634 6.477832 27.501714 4.01348 54.797128-8.694623 80.577172 0.986491-0.360088 1.969231-0.723927 2.951971-1.095267a4710.362491 4710.362491 0 0 0 20.082403-7.685627c56.848879-21.852835 146.101919-56.158711 224.657348-69.96208 43.926974-7.719385 87.880205-9.714872 121.754725 3.019487 17.426755 6.55285 32.677978 17.197949 43.409348 33.233113 10.682608 15.971399 15.870125 35.764982 15.870124 58.934389 0 81.049788-16.192703 132.87244-52.351531 161.008058-35.502418 27.621744-84.403106 27.430447-135.141743 21.684044-21.01263-2.378081-43.079267-5.780161-66.083634-9.324776-92.613861-14.268484-200.381421-30.873788-315.136938 7.426813l-11.871648-35.577436c124.324103-41.496381 243.404425-22.959355 336.325861-8.495824 21.867839 3.405832 42.287824 6.582857 60.986139 8.698373 51.124982 5.791414 85.539634 3.375824 107.88759-14.013421 21.687795-16.87537 37.876747-52.846652 37.876747-131.405831 0-17.580542-3.897201-29.647238-9.534828-38.075546-5.592615-8.35704-13.904645-14.647326-25.438711-18.983385-24.047121-9.039707-59.609553-8.645861-102.058666-1.185289-74.643223 13.116952-160.164103 45.952469-217.45559 67.947839l-0.015004 0.003751-0.037509 0.015003c-7.295531 2.801934-14.137201 5.427575-20.43874 7.816909-19.527267 7.396806-39.883487 12.333011-60.453509 15.059926-77.430154 10.270007-159.882784-10.562579-215.636395-52.959179-28.034344-21.320205-50.05222-48.683136-60.472264-81.083546-10.52507-32.722989-8.694623-69.020601 8.428307-106.676044l0.435107-0.956483 0.536381-0.90022c70.554725-118.08633 192.493245-133.03748 315.196952-115.126857 61.571282 8.987194 124.991766 26.406447 184.886388 44.433348a7166.012015 7166.012015 0 0 1 51.301275 15.716337l0.015004 0.003751c36.023795 11.136469 70.059604 21.661538 101.488527 29.94356 3.52211-6.75915 5.438828-13.473289 6.027722-20.389978 0.896469-10.588835-1.196542-23.068132-7.588103-38.499399-13.056938-31.526447-42.276571-71.391179-90.119502-125.70444l28.146872-24.793553c47.876689 54.35452 80.956015 98.304 96.627341 136.146989 7.974447 19.253451 11.849143 37.84674 10.307516 56.019927a89.598125 89.598125 0 0 1-6.072732 25.697524c36.061304 6.504088 77.223853 9.617348 98.000176 7.535589 37.827985-4.87244 60.682315-17.670564 73.255384-33.349392 12.426784-15.495033 17.265465-36.867751 12.678095-64.305699-8.900923-53.255502-52.599092-123.063795-127.186051-191.65304l-83.502886 70.277157-24.152147-28.694505 96.169729-80.944762 0.191297-0.150037c29.069597-23.206916 99.928147-65.340952 178.236014-68.619253V38.435634c-40.704938-5.288791-69.286916 11.560322-119.594197 41.211311z m11.721611 670.956308c0.003751 0.015004-0.007502-0.011253-0.026256-0.086271l0.026256 0.086271z" fill="#000000" /><path d="M686.61233 180.18274l43.015502-33.960791c-53.893158-46.683897-74.26063-39.519648-99.267986 0l56.252484 33.960791zM432.562806 347.083487c21.650286-24.178403 40.172308-43.04926 58.971898-62.197685l0.078769-0.075018c18.765832-19.118418 37.816733-38.521905 60.070916-63.375473l-27.944323-25.018608c-21.650286 24.174652-40.172308 43.045509-58.971897 62.190183l-0.078769 0.082521c-18.765832 19.114667-37.816733 38.518154-60.070916 63.371721l27.944322 25.018608zM534.441429 385.177788l138.971428-139.233993-26.54523-26.496469-138.97518 139.233993 26.548982 26.496469z" fill="#000000" /></svg>